<mxfile host="65bd71144e">
    <diagram id="gwOnVcY4Kffg6jFm2AIm" name="第 1 页">
        <mxGraphModel dx="1151" dy="855" grid="1" gridSize="10" guides="1" tooltips="1" connect="1" arrows="1" fold="1" page="1" pageScale="1" pageWidth="1169" pageHeight="827" math="0" shadow="0">
            <root>
                <mxCell id="0"/>
                <mxCell id="1" parent="0"/>
                <mxCell id="2" value="" style="shape=umlLifeline;participant=umlActor;perimeter=lifelinePerimeter;whiteSpace=wrap;html=1;container=1;collapsible=0;recursiveResize=0;verticalAlign=top;spacingTop=36;outlineConnect=0;" vertex="1" parent="1">
                    <mxGeometry x="80" y="100" width="20" height="320" as="geometry"/>
                </mxCell>
                <mxCell id="4" value="" style="html=1;points=[];perimeter=orthogonalPerimeter;" vertex="1" parent="2">
                    <mxGeometry x="5" y="70" width="10" height="250" as="geometry"/>
                </mxCell>
                <mxCell id="3" value="Ticket-C" style="shape=umlLifeline;perimeter=lifelinePerimeter;whiteSpace=wrap;html=1;container=1;collapsible=0;recursiveResize=0;outlineConnect=0;" vertex="1" parent="1">
                    <mxGeometry x="140" y="100" width="100" height="310" as="geometry"/>
                </mxCell>
                <mxCell id="5" value="" style="html=1;points=[];perimeter=orthogonalPerimeter;" vertex="1" parent="3">
                    <mxGeometry x="45" y="70" width="10" height="240" as="geometry"/>
                </mxCell>
                <mxCell id="6" value="&lt;font style=&quot;font-size: 14px;&quot;&gt;&lt;b style=&quot;&quot;&gt;抢票时序图&lt;/b&gt;&lt;/font&gt;" style="text;html=1;align=center;verticalAlign=middle;resizable=0;points=[];autosize=1;strokeColor=none;fillColor=none;" vertex="1" parent="1">
                    <mxGeometry x="10" y="10" width="90" height="30" as="geometry"/>
                </mxCell>
                <mxCell id="7" value="Activity-S" style="shape=umlLifeline;perimeter=lifelinePerimeter;whiteSpace=wrap;html=1;container=1;collapsible=0;recursiveResize=0;outlineConnect=0;" vertex="1" parent="1">
                    <mxGeometry x="280" y="100" width="100" height="300" as="geometry"/>
                </mxCell>
                <mxCell id="8" value="" style="html=1;points=[];perimeter=orthogonalPerimeter;" vertex="1" parent="7">
                    <mxGeometry x="45" y="70" width="10" height="30" as="geometry"/>
                </mxCell>
                <mxCell id="18" style="edgeStyle=none;html=1;entryX=-0.124;entryY=0.08;entryDx=0;entryDy=0;entryPerimeter=0;fontSize=14;" edge="1" parent="7">
                    <mxGeometry relative="1" as="geometry">
                        <mxPoint x="-85" y="84.51999999999998" as="sourcePoint"/>
                        <mxPoint x="43.75999999999999" y="84.51999999999998" as="targetPoint"/>
                    </mxGeometry>
                </mxCell>
                <mxCell id="19" value="checkEnable" style="edgeLabel;html=1;align=center;verticalAlign=middle;resizable=0;points=[];fontSize=14;" vertex="1" connectable="0" parent="18">
                    <mxGeometry x="0.2752" y="-1" relative="1" as="geometry">
                        <mxPoint x="-17" y="-1" as="offset"/>
                    </mxGeometry>
                </mxCell>
                <mxCell id="9" value="Ticket-S" style="shape=umlLifeline;perimeter=lifelinePerimeter;whiteSpace=wrap;html=1;container=1;collapsible=0;recursiveResize=0;outlineConnect=0;" vertex="1" parent="1">
                    <mxGeometry x="523" y="100" width="100" height="300" as="geometry"/>
                </mxCell>
                <mxCell id="10" value="" style="html=1;points=[];perimeter=orthogonalPerimeter;" vertex="1" parent="9">
                    <mxGeometry x="45" y="70" width="10" height="200" as="geometry"/>
                </mxCell>
                <mxCell id="11" value="Ticket-M" style="shape=umlLifeline;perimeter=lifelinePerimeter;whiteSpace=wrap;html=1;container=1;collapsible=0;recursiveResize=0;outlineConnect=0;" vertex="1" parent="1">
                    <mxGeometry x="653" y="100" width="100" height="300" as="geometry"/>
                </mxCell>
                <mxCell id="12" value="" style="html=1;points=[];perimeter=orthogonalPerimeter;" vertex="1" parent="11">
                    <mxGeometry x="45" y="70" width="10" height="30" as="geometry"/>
                </mxCell>
                <mxCell id="43" value="" style="html=1;points=[];perimeter=orthogonalPerimeter;" vertex="1" parent="11">
                    <mxGeometry x="45" y="226" width="10" height="54" as="geometry"/>
                </mxCell>
                <mxCell id="13" value="Redis" style="shape=umlLifeline;perimeter=lifelinePerimeter;whiteSpace=wrap;html=1;container=1;collapsible=0;recursiveResize=0;outlineConnect=0;" vertex="1" parent="1">
                    <mxGeometry x="783" y="100" width="100" height="300" as="geometry"/>
                </mxCell>
                <mxCell id="14" value="" style="html=1;points=[];perimeter=orthogonalPerimeter;" vertex="1" parent="13">
                    <mxGeometry x="45" y="70" width="10" height="200" as="geometry"/>
                </mxCell>
                <mxCell id="15" style="edgeStyle=none;html=1;entryX=-0.124;entryY=0.071;entryDx=0;entryDy=0;entryPerimeter=0;fontSize=14;" edge="1" parent="1">
                    <mxGeometry relative="1" as="geometry">
                        <mxPoint x="95" y="181.04000000000008" as="sourcePoint"/>
                        <mxPoint x="183.76" y="181.04000000000008" as="targetPoint"/>
                    </mxGeometry>
                </mxCell>
                <mxCell id="17" value="ticket/get" style="edgeLabel;html=1;align=center;verticalAlign=middle;resizable=0;points=[];fontSize=14;" vertex="1" connectable="0" parent="15">
                    <mxGeometry x="-0.0086" y="-2" relative="1" as="geometry">
                        <mxPoint as="offset"/>
                    </mxGeometry>
                </mxCell>
                <mxCell id="22" style="edgeStyle=none;html=1;entryX=0.924;entryY=0.2;entryDx=0;entryDy=0;entryPerimeter=0;dashed=1;fontSize=14;" edge="1" parent="1">
                    <mxGeometry relative="1" as="geometry">
                        <mxPoint x="185" y="214" as="sourcePoint"/>
                        <mxPoint x="94.24000000000001" y="214" as="targetPoint"/>
                    </mxGeometry>
                </mxCell>
                <mxCell id="23" value="notEable" style="edgeLabel;html=1;align=center;verticalAlign=middle;resizable=0;points=[];fontSize=14;" vertex="1" connectable="0" parent="22">
                    <mxGeometry x="-0.2802" relative="1" as="geometry">
                        <mxPoint x="-17" as="offset"/>
                    </mxGeometry>
                </mxCell>
                <mxCell id="24" style="edgeStyle=none;html=1;fontSize=14;entryX=0;entryY=0.285;entryDx=0;entryDy=0;entryPerimeter=0;" edge="1" parent="1" target="10">
                    <mxGeometry relative="1" as="geometry">
                        <mxPoint x="195" y="225.39999999999998" as="sourcePoint"/>
                        <mxPoint x="463.76" y="225.39999999999998" as="targetPoint"/>
                    </mxGeometry>
                </mxCell>
                <mxCell id="25" value="enable/checkJoined" style="edgeLabel;html=1;align=center;verticalAlign=middle;resizable=0;points=[];fontSize=14;" vertex="1" connectable="0" parent="24">
                    <mxGeometry x="0.2342" y="-4" relative="1" as="geometry">
                        <mxPoint x="37" y="-3" as="offset"/>
                    </mxGeometry>
                </mxCell>
                <mxCell id="26" style="edgeStyle=none;html=1;entryX=0.067;entryY=0.277;entryDx=0;entryDy=0;entryPerimeter=0;fontSize=14;" edge="1" parent="1" target="14">
                    <mxGeometry relative="1" as="geometry">
                        <mxPoint x="578" y="225.39999999999998" as="sourcePoint"/>
                        <mxPoint x="826.7600000000002" y="225.39999999999998" as="targetPoint"/>
                    </mxGeometry>
                </mxCell>
                <mxCell id="27" value="get" style="edgeLabel;html=1;align=center;verticalAlign=middle;resizable=0;points=[];fontSize=14;" vertex="1" connectable="0" parent="26">
                    <mxGeometry x="0.3415" y="-2" relative="1" as="geometry">
                        <mxPoint as="offset"/>
                    </mxGeometry>
                </mxCell>
                <mxCell id="29" style="edgeStyle=none;html=1;fontSize=14;entryX=0.924;entryY=0.285;entryDx=0;entryDy=0;entryPerimeter=0;dashed=1;" edge="1" parent="1">
                    <mxGeometry relative="1" as="geometry">
                        <mxPoint x="94.24000000000001" y="243" as="targetPoint"/>
                        <mxPoint x="185" y="243" as="sourcePoint"/>
                    </mxGeometry>
                </mxCell>
                <mxCell id="30" value="canNotJoin" style="edgeLabel;html=1;align=center;verticalAlign=middle;resizable=0;points=[];fontSize=14;" vertex="1" connectable="0" parent="29">
                    <mxGeometry x="-0.3011" relative="1" as="geometry">
                        <mxPoint x="-12" as="offset"/>
                    </mxGeometry>
                </mxCell>
                <mxCell id="31" style="edgeStyle=none;html=1;fontSize=14;entryX=-0.222;entryY=0.457;entryDx=0;entryDy=0;entryPerimeter=0;" edge="1" parent="1" target="10">
                    <mxGeometry relative="1" as="geometry">
                        <mxPoint x="195" y="261" as="sourcePoint"/>
                        <mxPoint x="469.5" y="261" as="targetPoint"/>
                    </mxGeometry>
                </mxCell>
                <mxCell id="32" value="getOneCode" style="edgeLabel;html=1;align=center;verticalAlign=middle;resizable=0;points=[];fontSize=14;" vertex="1" connectable="0" parent="31">
                    <mxGeometry x="0.0908" y="1" relative="1" as="geometry">
                        <mxPoint x="43" y="1" as="offset"/>
                    </mxGeometry>
                </mxCell>
                <mxCell id="33" style="edgeStyle=none;html=1;fontSize=14;entryX=0.029;entryY=0.503;entryDx=0;entryDy=0;entryPerimeter=0;" edge="1" parent="1">
                    <mxGeometry relative="1" as="geometry">
                        <mxPoint x="578" y="266.6" as="sourcePoint"/>
                        <mxPoint x="828.29" y="266.6" as="targetPoint"/>
                        <Array as="points"/>
                    </mxGeometry>
                </mxCell>
                <mxCell id="34" value="lpop" style="edgeLabel;html=1;align=center;verticalAlign=middle;resizable=0;points=[];fontSize=14;" vertex="1" connectable="0" parent="33">
                    <mxGeometry x="0.2589" y="1" relative="1" as="geometry">
                        <mxPoint x="10" as="offset"/>
                    </mxGeometry>
                </mxCell>
                <mxCell id="36" style="edgeStyle=none;html=1;entryX=0.95;entryY=0.605;entryDx=0;entryDy=0;entryPerimeter=0;fontSize=14;dashed=1;" edge="1" parent="1">
                    <mxGeometry relative="1" as="geometry">
                        <mxPoint x="828" y="288" as="sourcePoint"/>
                        <mxPoint x="577.5" y="288" as="targetPoint"/>
                    </mxGeometry>
                </mxCell>
                <mxCell id="37" value="retun ticket code" style="edgeLabel;html=1;align=center;verticalAlign=middle;resizable=0;points=[];fontSize=14;" vertex="1" connectable="0" parent="36">
                    <mxGeometry x="-0.2774" y="-1" relative="1" as="geometry">
                        <mxPoint x="1" as="offset"/>
                    </mxGeometry>
                </mxCell>
                <mxCell id="38" style="edgeStyle=none;html=1;entryX=1.05;entryY=0.605;entryDx=0;entryDy=0;entryPerimeter=0;fontSize=14;dashed=1;" edge="1" parent="1" source="9">
                    <mxGeometry relative="1" as="geometry">
                        <mxPoint x="465" y="291" as="sourcePoint"/>
                        <mxPoint x="195.5" y="291" as="targetPoint"/>
                    </mxGeometry>
                </mxCell>
                <mxCell id="39" value="ticket code" style="edgeLabel;html=1;align=center;verticalAlign=middle;resizable=0;points=[];fontSize=14;" vertex="1" connectable="0" parent="38">
                    <mxGeometry x="-0.1058" y="-1" relative="1" as="geometry">
                        <mxPoint x="-114" as="offset"/>
                    </mxGeometry>
                </mxCell>
                <mxCell id="40" style="edgeStyle=none;html=1;fontSize=14;entryX=-0.111;entryY=0.841;entryDx=0;entryDy=0;entryPerimeter=0;" edge="1" parent="1" target="10">
                    <mxGeometry relative="1" as="geometry">
                        <mxPoint x="195" y="337" as="sourcePoint"/>
                        <mxPoint x="564.6699999999998" y="332.4000000000001" as="targetPoint"/>
                    </mxGeometry>
                </mxCell>
                <mxCell id="41" value="get ticket info" style="edgeLabel;html=1;align=center;verticalAlign=middle;resizable=0;points=[];fontSize=14;" vertex="1" connectable="0" parent="40">
                    <mxGeometry x="0.0879" y="-3" relative="1" as="geometry">
                        <mxPoint x="45" y="-3" as="offset"/>
                    </mxGeometry>
                </mxCell>
                <mxCell id="45" style="edgeStyle=none;html=1;entryX=-0.05;entryY=0.533;entryDx=0;entryDy=0;entryPerimeter=0;fontSize=14;" edge="1" parent="1">
                    <mxGeometry relative="1" as="geometry">
                        <mxPoint x="578" y="340.452" as="sourcePoint"/>
                        <mxPoint x="697.5" y="340.452" as="targetPoint"/>
                    </mxGeometry>
                </mxCell>
                <mxCell id="47" value="get" style="edgeLabel;html=1;align=center;verticalAlign=middle;resizable=0;points=[];fontSize=14;" vertex="1" connectable="0" parent="45">
                    <mxGeometry x="0.1464" y="1" relative="1" as="geometry">
                        <mxPoint x="1" as="offset"/>
                    </mxGeometry>
                </mxCell>
                <mxCell id="46" value="get" style="edgeStyle=none;html=1;entryX=-0.05;entryY=0.855;entryDx=0;entryDy=0;entryPerimeter=0;fontSize=14;" edge="1" parent="1" source="43" target="14">
                    <mxGeometry relative="1" as="geometry"/>
                </mxCell>
                <mxCell id="48" style="edgeStyle=none;html=1;dashed=1;fontSize=14;entryX=0.964;entryY=0.712;entryDx=0;entryDy=0;entryPerimeter=0;" edge="1" parent="1" target="43">
                    <mxGeometry relative="1" as="geometry">
                        <mxPoint x="828" y="362" as="sourcePoint"/>
                        <mxPoint x="713" y="362" as="targetPoint"/>
                    </mxGeometry>
                </mxCell>
                <mxCell id="49" style="edgeStyle=none;html=1;entryX=0.971;entryY=0.945;entryDx=0;entryDy=0;entryPerimeter=0;dashed=1;fontSize=14;" edge="1" parent="1">
                    <mxGeometry relative="1" as="geometry">
                        <mxPoint x="698" y="363" as="sourcePoint"/>
                        <mxPoint x="577.71" y="363" as="targetPoint"/>
                    </mxGeometry>
                </mxCell>
                <mxCell id="50" value="return ticket info" style="edgeLabel;html=1;align=center;verticalAlign=middle;resizable=0;points=[];fontSize=14;" vertex="1" connectable="0" parent="49">
                    <mxGeometry x="-0.2571" y="-3" relative="1" as="geometry">
                        <mxPoint x="120" y="4" as="offset"/>
                    </mxGeometry>
                </mxCell>
                <mxCell id="51" value="return" style="edgeLabel;html=1;align=center;verticalAlign=middle;resizable=0;points=[];fontSize=14;" vertex="1" connectable="0" parent="49">
                    <mxGeometry x="-0.1105" y="-2" relative="1" as="geometry">
                        <mxPoint as="offset"/>
                    </mxGeometry>
                </mxCell>
                <mxCell id="52" style="edgeStyle=none;html=1;entryX=0.85;entryY=0.93;entryDx=0;entryDy=0;entryPerimeter=0;dashed=1;fontSize=14;exitX=-0.429;exitY=0.966;exitDx=0;exitDy=0;exitPerimeter=0;" edge="1" parent="1" source="10">
                    <mxGeometry relative="1" as="geometry">
                        <mxPoint x="465" y="363" as="sourcePoint"/>
                        <mxPoint x="193.5" y="363" as="targetPoint"/>
                    </mxGeometry>
                </mxCell>
                <mxCell id="53" value="ticket info" style="edgeLabel;html=1;align=center;verticalAlign=middle;resizable=0;points=[];fontSize=14;" vertex="1" connectable="0" parent="52">
                    <mxGeometry x="-0.186" y="2" relative="1" as="geometry">
                        <mxPoint x="-138" as="offset"/>
                    </mxGeometry>
                </mxCell>
                <mxCell id="54" style="edgeStyle=none;html=1;entryX=0.916;entryY=0.841;entryDx=0;entryDy=0;entryPerimeter=0;dashed=1;fontSize=14;" edge="1" parent="1">
                    <mxGeometry relative="1" as="geometry">
                        <mxPoint x="185" y="394.25" as="sourcePoint"/>
                        <mxPoint x="94.16000000000008" y="394.25" as="targetPoint"/>
                    </mxGeometry>
                </mxCell>
                <mxCell id="55" value="result" style="edgeLabel;html=1;align=center;verticalAlign=middle;resizable=0;points=[];fontSize=14;" vertex="1" connectable="0" parent="54">
                    <mxGeometry x="0.1654" y="-3" relative="1" as="geometry">
                        <mxPoint y="4" as="offset"/>
                    </mxGeometry>
                </mxCell>
                <mxCell id="58" value="History-S&lt;br&gt;" style="shape=umlLifeline;perimeter=lifelinePerimeter;whiteSpace=wrap;html=1;container=1;collapsible=0;recursiveResize=0;outlineConnect=0;" vertex="1" parent="1">
                    <mxGeometry x="400" y="100" width="100" height="300" as="geometry"/>
                </mxCell>
                <mxCell id="59" value="" style="html=1;points=[];perimeter=orthogonalPerimeter;" vertex="1" parent="58">
                    <mxGeometry x="45" y="274" width="10" height="20" as="geometry"/>
                </mxCell>
                <mxCell id="60" style="edgeStyle=none;html=1;entryX=-0.009;entryY=0.482;entryDx=0;entryDy=0;entryPerimeter=0;dashed=1;fontSize=14;" edge="1" parent="1" source="5" target="59">
                    <mxGeometry relative="1" as="geometry"/>
                </mxCell>
                <mxCell id="61" value="setHistory" style="edgeLabel;html=1;align=center;verticalAlign=middle;resizable=0;points=[];fontSize=14;" vertex="1" connectable="0" parent="60">
                    <mxGeometry x="0.3445" relative="1" as="geometry">
                        <mxPoint x="7" as="offset"/>
                    </mxGeometry>
                </mxCell>
            </root>
        </mxGraphModel>
    </diagram>
</mxfile>